<?xml version="1.0" encoding="UTF-8"?>
<svg id="LOGO" xmlns="http://www.w3.org/2000/svg" viewBox="0 0 2160 2160">
  <defs>
    <style>
      .cls-1 {
        fill: #fff;
      }

      .cls-2 {
        fill: none;
        stroke-width: 49px;
      }

      .cls-2, .cls-3 {
        stroke: #1e4a54;
        stroke-miterlimit: 10;
      }

      .cls-4 {
        fill: #38e538;
      }

      .cls-3 {
        fill: #1e4a54;
        stroke-width: 45px;
      }
    </style>
  </defs>
  <path class="cls-2" d="m1975.74,317.08v933.39c-8.41,74.99-33.13,206.82-118.47,336.56-120.5,183.2-288.82,251.22-393.19,293.4-80.83,32.67-215.18,74.49-389.36,71.58h-.26c-174.18,2.91-308.53-38.92-389.36-71.58-104.37-42.18-272.69-110.2-393.19-293.4-85.34-129.75-110.06-261.57-118.47-336.56V317.08c0-54.21,43.95-98.16,98.16-98.16h1605.97c54.21,0,98.16,43.95,98.16,98.16Z"/>
  <path class="cls-3" d="m1894.96,321.95v914.36c-7.64,68.55-30.09,189.04-107.59,307.64-109.43,167.46-262.3,229.63-357.08,268.19-73.41,29.86-195.42,68.09-353.61,65.43h-.24c-158.19,2.66-280.2-35.57-353.61-65.43-94.79-38.55-247.65-100.73-357.08-268.19-77.5-118.6-99.95-239.09-107.59-307.64V321.95c0-15.77,12.78-28.55,28.55-28.55h1579.69c15.77,0,28.55,12.78,28.55,28.55Z"/>
  <path class="cls-1" d="m489.32,1283.25h0c-26.92,0-48.74-21.82-48.74-48.74V443.82c0-26.92,21.82-48.74,48.74-48.74h0c26.92,0,48.74,21.82,48.74,48.74v790.69c0,26.92-21.82,48.74-48.74,48.74Z"/>
  <path class="cls-1" d="m1769.22,484.52h-304.47v313.07h224.54c24.7,0,44.72,20.02,44.72,44.72h0c0,24.7-20.02,44.72-44.72,44.72h-224.54v347.47c0,26.92-21.82,48.74-48.74,48.74h0c-26.92,0-48.74-21.82-48.74-48.74V443.82c0-26.92,21.82-48.74,48.74-48.74h353.22c24.7,0,44.72,20.02,44.72,44.72h0c0,24.7-20.02,44.72-44.72,44.72Z"/>
  <path class="cls-4" d="m1154.98,464.46c-52.36-46.25-124.99-69.39-217.88-69.39h-190.94c-26.92,0-48.74,21.82-48.74,48.74v790.69c0,26.92,21.82,48.74,48.74,48.74h0c26.92,0,48.74-21.82,48.74-48.74V485.09h124.99c140.66,0,211.01,59.64,211.01,178.89,0,61.17-19.21,108.29-57.63,141.35-27.76,23.9-82.6,39.15-128.42,45.78v93.72c68.89-6.15,146.37-30.96,196.37-74.42,61.54-53.51,92.32-123.84,92.32-211.01s-26.2-148.69-78.56-194.94Z"/>
  <g>
    <path class="cls-1" d="m430.4,1545.74c-.69-1.04-1.61-1.77-2.77-2.2l-46.86-16.85,48.66-13.11c.59-.14,1.15-.39,1.67-.73,1.56-1.04,2.38-2.48,2.46-4.35l2.48-43.81,24.2,36.54c.66,1,1.55,1.72,2.66,2.17,1.11.45,2.28.52,3.51.21l46.58-12.58-29.76,37.98c-.77,1.01-1.16,2.11-1.18,3.31-.02,1.2.3,2.3.96,3.3l24.2,36.54-41.3-14.82c-1.75-.66-3.4-.47-4.96.57-.52.34-.96.76-1.33,1.25l-31.06,39.69,2.78-49.72c.06-1.23-.25-2.36-.94-3.41Z"/>
    <path class="cls-1" d="m566.82,1679.24c-1.04-.7-2.17-1.03-3.4-.98l-49.75,2.25,40.01-30.64c.49-.36.92-.79,1.27-1.31,1.05-1.55,1.26-3.21.62-4.96l-14.38-41.45,36.28,24.59c.99.67,2.09,1,3.29,1,1.2,0,2.31-.39,3.32-1.14l38.29-29.35-13.07,46.45c-.33,1.23-.27,2.4.17,3.51.44,1.12,1.15,2.01,2.15,2.68l36.28,24.58-43.83,2.01c-1.86.06-3.32.86-4.37,2.42-.35.52-.6,1.07-.75,1.66l-13.63,48.52-16.35-47.04c-.41-1.16-1.13-2.09-2.17-2.79Z"/>
    <path class="cls-1" d="m730.54,1763.2c-1.17-.45-2.34-.52-3.53-.19l-47.98,13.33,32.13-38.83c.4-.46.71-.98.94-1.56.68-1.75.51-3.41-.5-4.97l-23.3-37.18,40.87,15.83c1.12.43,2.26.51,3.43.24,1.17-.27,2.16-.89,2.98-1.86l30.74-37.19-2.33,48.19c-.04,1.27.27,2.4.95,3.38.68.99,1.57,1.7,2.69,2.13l40.87,15.83-42.26,11.78c-1.8.47-3.04,1.59-3.72,3.33-.23.58-.35,1.18-.36,1.79l-2.41,50.34-26.47-42.18c-.66-1.04-1.57-1.78-2.74-2.23Z"/>
    <path class="cls-1" d="m903.92,1814.9c-1.22-.27-2.39-.15-3.52.35l-45.37,20.52,25.81-43.29c.33-.51.56-1.08.69-1.69.4-1.83-.02-3.44-1.26-4.83l-28.71-33.17,42.81,9.39c1.17.26,2.31.16,3.42-.29,1.11-.45,2-1.21,2.66-2.29l24.69-41.45,5.07,47.98c.15,1.26.64,2.33,1.46,3.2.82.87,1.82,1.44,2.99,1.7l42.81,9.39-39.97,18.11c-1.71.74-2.77,2.03-3.17,3.86-.13.61-.16,1.22-.08,1.82l5.32,50.12-32.62-37.63c-.81-.92-1.83-1.52-3.05-1.79Z"/>
    <path class="cls-1" d="m1085.81,1839.81c-1.25-.02-2.37.34-3.37,1.05l-40.28,29.28,16.52-47.61c.21-.57.33-1.17.33-1.79.02-1.88-.71-3.37-2.21-4.48l-34.83-26.68,43.82.54c1.2.01,2.3-.31,3.29-.97,1-.66,1.71-1.59,2.14-2.79l15.79-45.59,14.67,45.96c.4,1.2,1.09,2.15,2.08,2.84.98.69,2.07,1.04,3.27,1.06l43.82.54-35.47,25.82c-1.52,1.08-2.3,2.55-2.32,4.43,0,.62.09,1.23.29,1.8l15.35,48-39.55-30.25c-.98-.74-2.1-1.12-3.35-1.13Z"/>
    <path class="cls-1" d="m1269.65,1809.45c-1.2.34-2.18,1-2.93,1.97l-30.29,39.53,2.29-50.35c.04-.61-.02-1.21-.19-1.81-.51-1.8-1.64-3.03-3.39-3.67l-40.98-15.66,42.17-11.96c1.15-.33,2.11-.95,2.88-1.87.77-.92,1.19-2.01,1.26-3.28l2.17-48.2,27.15,39.89c.73,1.04,1.66,1.75,2.8,2.13,1.14.38,2.28.41,3.43.08l42.17-11.96-26.66,34.85c-1.16,1.46-1.48,3.1-.96,4.9.17.6.43,1.15.79,1.64l28.38,41.65-46.53-17.75c-1.15-.43-2.33-.48-3.53-.14Z"/>
    <path class="cls-1" d="m1439.38,1746.4c-1.13.53-2,1.33-2.59,2.4l-23.71,43.79-5.64-50.08c-.05-.61-.21-1.19-.47-1.76-.79-1.7-2.1-2.73-3.93-3.09l-42.93-9.04,39.77-18.42c1.09-.5,1.94-1.27,2.55-2.3.61-1.03.86-2.18.73-3.44l-5.42-47.94,33.07,35.14c.88.91,1.91,1.47,3.1,1.67,1.18.2,2.32.05,3.4-.46l39.77-18.42-20.87,38.6c-.91,1.63-.97,3.29-.18,4.99.26.57.61,1.07,1.04,1.5l34.56,36.68-48.74-10.23c-1.2-.25-2.37-.11-3.51.42Z"/>
    <path class="cls-1" d="m1597.36,1656.22c-1.02.72-1.73,1.66-2.13,2.82l-15.65,47.27-14.35-48.31c-.16-.59-.42-1.14-.77-1.65-1.07-1.54-2.54-2.32-4.41-2.35l-43.85-1.36,35.91-25.12c.98-.69,1.68-1.59,2.11-2.71.42-1.12.46-2.29.12-3.51l-13.76-46.25,38.73,28.78c1.03.74,2.14,1.11,3.34,1.1,1.2-.01,2.29-.36,3.27-1.05l35.91-25.12-13.76,41.66c-.61,1.76-.38,3.41.7,4.95.36.51.79.94,1.29,1.29l40.47,30.04-49.77-1.51c-1.23-.03-2.35.31-3.38,1.03Z"/>
    <path class="cls-1" d="m1735.67,1533.84c-.82.94-1.29,2.02-1.39,3.25l-3.88,49.65-25.5-43.47c-.29-.53-.68-1.01-1.15-1.42-1.41-1.23-3.03-1.64-4.84-1.23l-42.9,9.18,28.85-32.99c.79-.9,1.25-1.95,1.4-3.14.14-1.19-.1-2.34-.73-3.44l-24.43-41.61,44.49,18.67c1.18.48,2.34.56,3.51.26,1.16-.3,2.14-.9,2.92-1.8l28.85-32.99-3.39,43.74c-.17,1.86.45,3.4,1.86,4.64.47.41.99.73,1.56.95l46.48,19.48-48.69,10.46c-1.2.26-2.21.87-3.04,1.81Z"/>
  </g>
</svg>